<svg width="206" height="48" viewBox="0 0 206 48" fill="none" xmlns="http://www.w3.org/2000/svg">
<g clip-path="url(#clip0_0_1)">
<mask id="mask0_0_1" style="mask-type:luminance" maskUnits="userSpaceOnUse" x="0" y="0" width="206" height="48">
<path d="M206 0H0V48H206V0Z" fill="white"/>
</mask>
<g mask="url(#mask0_0_1)">
<path d="M195.44 4.8C196.976 4.8 198.432 5.392 199.52 6.48C200.608 7.568 201.2 9.024 201.2 10.56V37.44C201.2 38.976 200.608 40.432 199.52 41.52C198.432 42.608 196.976 43.2 195.44 43.2H168.56C167.024 43.2 165.568 42.608 164.48 41.52C163.392 40.432 162.8 38.976 162.8 37.44V10.56C162.8 9.024 163.392 7.568 164.48 6.48C165.568 5.392 167.024 4.8 168.56 4.8H195.44ZM195.44 0H168.56C162.72 0 158 4.72 158 10.56V37.44C158 43.28 162.72 48 168.56 48H195.44C201.28 48 206 43.28 206 37.44V10.56C206 4.72 201.28 0 195.44 0Z" fill="#F59E0B"/>
<path d="M202.336 19.584H184.816C183.488 19.584 182.416 18.512 182.416 17.184C182.416 15.856 183.488 14.784 184.816 14.784H202.336C203.664 14.784 204.736 15.856 204.736 17.184C204.736 18.512 203.664 19.584 202.336 19.584Z" fill="#F59E0B"/>
<path d="M182 33.296H163.168C161.84 33.296 160.768 32.224 160.768 30.896C160.768 29.568 161.84 28.496 163.168 28.496H182C183.328 28.496 184.4 29.568 184.4 30.896C184.4 32.224 183.328 33.296 182 33.296Z" fill="#F59E0B"/>
<path d="M191.616 46.96C190.832 46.96 190.064 46.576 189.6 45.872L162.992 5.24801C162.272 4.14401 162.576 2.65601 163.68 1.92001C164.784 1.18401 166.272 1.50401 167.008 2.60801L193.616 43.232C194.336 44.336 194.032 45.824 192.928 46.56C192.528 46.832 192.064 46.96 191.616 46.96Z" fill="#F59E0B"/>
<path d="M9.96801 12.968L4.78401 25.16C4.67201 25.464 4.49601 25.704 4.25601 25.88C4.03201 26.04 3.78401 26.12 3.51201 26.12C3.08001 26.12 2.76001 26 2.55201 25.76C2.34401 25.52 2.24001 25.224 2.24001 24.872C2.24001 24.728 2.26401 24.576 2.31201 24.416L8.28801 10.064C8.41601 9.74401 8.60801 9.49601 8.86401 9.32001C9.13601 9.14401 9.42401 9.07201 9.72801 9.10401C10.016 9.10401 10.28 9.19201 10.52 9.36801C10.776 9.52801 10.96 9.76001 11.072 10.064L16.976 24.128C17.056 24.336 17.096 24.528 17.096 24.704C17.096 25.136 16.952 25.48 16.664 25.736C16.392 25.992 16.088 26.12 15.752 26.12C15.464 26.12 15.2 26.032 14.96 25.856C14.736 25.68 14.56 25.44 14.432 25.136L9.27201 13.112L9.96801 12.968ZM5.52801 22.232L6.84801 19.472H13.328L13.784 22.232H5.52801ZM29.1361 12.968L23.9521 25.16C23.8401 25.464 23.6641 25.704 23.4241 25.88C23.2001 26.04 22.9521 26.12 22.6801 26.12C22.2481 26.12 21.9281 26 21.7201 25.76C21.5121 25.52 21.4081 25.224 21.4081 24.872C21.4081 24.728 21.4321 24.576 21.4801 24.416L27.4561 10.064C27.5841 9.74401 27.7761 9.49601 28.0321 9.32001C28.3041 9.14401 28.5921 9.07201 28.8961 9.10401C29.1841 9.10401 29.4481 9.19201 29.6881 9.36801C29.9441 9.52801 30.1281 9.76001 30.2401 10.064L36.1441 24.128C36.2241 24.336 36.2641 24.528 36.2641 24.704C36.2641 25.136 36.1201 25.48 35.8321 25.736C35.5601 25.992 35.2561 26.12 34.9201 26.12C34.6321 26.12 34.3681 26.032 34.1281 25.856C33.9041 25.68 33.7281 25.44 33.6001 25.136L28.4401 13.112L29.1361 12.968ZM24.6961 22.232L26.0161 19.472H32.4961L32.9521 22.232H24.6961ZM47.5363 26.24C46.4163 26.24 45.4083 26.104 44.5123 25.832C43.6163 25.544 42.7603 25.048 41.9443 24.344C41.7363 24.168 41.5763 23.968 41.4643 23.744C41.3523 23.52 41.2963 23.296 41.2963 23.072C41.2963 22.704 41.4243 22.384 41.6803 22.112C41.9523 21.824 42.2883 21.68 42.6883 21.68C42.9923 21.68 43.2643 21.776 43.5043 21.968C44.1123 22.464 44.7123 22.84 45.3043 23.096C45.9123 23.352 46.6563 23.48 47.5363 23.48C48.1283 23.48 48.6723 23.392 49.1683 23.216C49.6643 23.024 50.0643 22.776 50.3683 22.472C50.6723 22.152 50.8243 21.792 50.8243 21.392C50.8243 20.912 50.6803 20.504 50.3923 20.168C50.1043 19.832 49.6643 19.552 49.0723 19.328C48.4803 19.088 47.7283 18.904 46.8163 18.776C45.9523 18.648 45.1923 18.456 44.5363 18.2C43.8803 17.928 43.3283 17.592 42.8803 17.192C42.4483 16.776 42.1203 16.296 41.8963 15.752C41.6723 15.192 41.5603 14.568 41.5603 13.88C41.5603 12.84 41.8243 11.952 42.3523 11.216C42.8963 10.48 43.6243 9.92001 44.5363 9.53601C45.4483 9.15201 46.4563 8.96001 47.5603 8.96001C48.6003 8.96001 49.5603 9.12001 50.4403 9.44001C51.3363 9.74401 52.0643 10.136 52.6243 10.616C53.0883 10.984 53.3203 11.408 53.3203 11.888C53.3203 12.24 53.1843 12.56 52.9123 12.848C52.6403 13.136 52.3203 13.28 51.9523 13.28C51.7123 13.28 51.4963 13.208 51.3043 13.064C51.0483 12.84 50.7043 12.632 50.2723 12.44C49.8403 12.232 49.3843 12.064 48.9043 11.936C48.4243 11.792 47.9763 11.72 47.5603 11.72C46.8723 11.72 46.2883 11.808 45.8083 11.984C45.3443 12.16 44.9923 12.4 44.7523 12.704C44.5123 13.008 44.3923 13.36 44.3923 13.76C44.3923 14.24 44.5283 14.64 44.8003 14.96C45.0883 15.264 45.4963 15.512 46.0243 15.704C46.5523 15.88 47.1843 16.04 47.9203 16.184C48.8803 16.36 49.7203 16.568 50.4403 16.808C51.1763 17.048 51.7843 17.36 52.2643 17.744C52.7443 18.112 53.1043 18.584 53.3443 19.16C53.5843 19.72 53.7043 20.408 53.7043 21.224C53.7043 22.264 53.4163 23.16 52.8403 23.912C52.2643 24.664 51.5043 25.24 50.5603 25.64C49.6323 26.04 48.6243 26.24 47.5363 26.24ZM65.6966 26.24C64.5766 26.24 63.5686 26.104 62.6726 25.832C61.7766 25.544 60.9206 25.048 60.1046 24.344C59.8966 24.168 59.7366 23.968 59.6246 23.744C59.5126 23.52 59.4566 23.296 59.4566 23.072C59.4566 22.704 59.5846 22.384 59.8406 22.112C60.1126 21.824 60.4486 21.68 60.8486 21.68C61.1526 21.68 61.4246 21.776 61.6646 21.968C62.2726 22.464 62.8726 22.84 63.4646 23.096C64.0726 23.352 64.8166 23.48 65.6966 23.48C66.2886 23.48 66.8326 23.392 67.3286 23.216C67.8246 23.024 68.2246 22.776 68.5286 22.472C68.8326 22.152 68.9846 21.792 68.9846 21.392C68.9846 20.912 68.8406 20.504 68.5526 20.168C68.2646 19.832 67.8246 19.552 67.2326 19.328C66.6406 19.088 65.8886 18.904 64.9766 18.776C64.1126 18.648 63.3526 18.456 62.6966 18.2C62.0406 17.928 61.4886 17.592 61.0406 17.192C60.6086 16.776 60.2806 16.296 60.0566 15.752C59.8326 15.192 59.7206 14.568 59.7206 13.88C59.7206 12.84 59.9846 11.952 60.5126 11.216C61.0566 10.48 61.7846 9.92001 62.6966 9.53601C63.6086 9.15201 64.6166 8.96001 65.7206 8.96001C66.7606 8.96001 67.7206 9.12001 68.6006 9.44001C69.4966 9.74401 70.2246 10.136 70.7846 10.616C71.2486 10.984 71.4806 11.408 71.4806 11.888C71.4806 12.24 71.3446 12.56 71.0726 12.848C70.8006 13.136 70.4806 13.28 70.1126 13.28C69.8726 13.28 69.6566 13.208 69.4646 13.064C69.2086 12.84 68.8646 12.632 68.4326 12.44C68.0006 12.232 67.5446 12.064 67.0646 11.936C66.5846 11.792 66.1366 11.72 65.7206 11.72C65.0326 11.72 64.4486 11.808 63.9686 11.984C63.5046 12.16 63.1526 12.4 62.9126 12.704C62.6726 13.008 62.5526 13.36 62.5526 13.76C62.5526 14.24 62.6886 14.64 62.9606 14.96C63.2486 15.264 63.6566 15.512 64.1846 15.704C64.7126 15.88 65.3446 16.04 66.0806 16.184C67.0406 16.36 67.8806 16.568 68.6006 16.808C69.3366 17.048 69.9446 17.36 70.4246 17.744C70.9046 18.112 71.2646 18.584 71.5046 19.16C71.7446 19.72 71.8646 20.408 71.8646 21.224C71.8646 22.264 71.5766 23.16 71.0006 23.912C70.4246 24.664 69.6646 25.24 68.7206 25.64C67.7926 26.04 66.7846 26.24 65.6966 26.24ZM84.1449 26C83.6969 26 83.3289 25.864 83.0409 25.592C82.7529 25.304 82.6089 24.952 82.6089 24.536V10.616H85.7289V24.536C85.7289 24.952 85.5769 25.304 85.2729 25.592C84.9849 25.864 84.6089 26 84.1449 26ZM78.8409 11.96C78.4249 11.96 78.0729 11.832 77.7849 11.576C77.5129 11.32 77.3769 10.984 77.3769 10.568C77.3769 10.152 77.5129 9.82401 77.7849 9.58401C78.0729 9.32801 78.4249 9.20001 78.8409 9.20001H89.4969C89.9129 9.20001 90.2569 9.32801 90.5289 9.58401C90.8169 9.84001 90.9609 10.176 90.9609 10.592C90.9609 11.008 90.8169 11.344 90.5289 11.6C90.2569 11.84 89.9129 11.96 89.4969 11.96H78.8409ZM112.308 17.6C112.308 18.8 112.108 19.92 111.708 20.96C111.308 22 110.74 22.92 110.004 23.72C109.284 24.504 108.42 25.12 107.412 25.568C106.42 26.016 105.332 26.24 104.148 26.24C102.964 26.24 101.876 26.016 100.884 25.568C99.8916 25.12 99.0276 24.504 98.2916 23.72C97.5716 22.92 97.0116 22 96.6116 20.96C96.2116 19.92 96.0116 18.8 96.0116 17.6C96.0116 16.4 96.2116 15.28 96.6116 14.24C97.0116 13.2 97.5716 12.288 98.2916 11.504C99.0276 10.704 99.8916 10.08 100.884 9.63201C101.876 9.18401 102.964 8.96001 104.148 8.96001C105.332 8.96001 106.42 9.18401 107.412 9.63201C108.42 10.08 109.284 10.704 110.004 11.504C110.74 12.288 111.308 13.2 111.708 14.24C112.108 15.28 112.308 16.4 112.308 17.6ZM109.188 17.6C109.188 16.528 108.972 15.56 108.54 14.696C108.108 13.816 107.516 13.12 106.764 12.608C106.012 12.096 105.14 11.84 104.148 11.84C103.156 11.84 102.284 12.096 101.532 12.608C100.78 13.12 100.188 13.808 99.7556 14.672C99.3396 15.536 99.1316 16.512 99.1316 17.6C99.1316 18.672 99.3396 19.648 99.7556 20.528C100.188 21.392 100.78 22.08 101.532 22.592C102.284 23.104 103.156 23.36 104.148 23.36C105.14 23.36 106.012 23.104 106.764 22.592C107.516 22.08 108.108 21.392 108.54 20.528C108.972 19.648 109.188 18.672 109.188 17.6ZM131.647 9.20001C132.031 9.20001 132.343 9.32801 132.583 9.58401C132.823 9.84001 132.943 10.16 132.943 10.544V24.536C132.943 24.952 132.799 25.304 132.511 25.592C132.239 25.864 131.895 26 131.479 26C131.271 26 131.055 25.968 130.831 25.904C130.623 25.824 130.463 25.72 130.351 25.592L120.919 13.616L121.543 13.232V24.656C121.543 25.04 121.415 25.36 121.159 25.616C120.919 25.872 120.599 26 120.199 26C119.815 26 119.503 25.872 119.263 25.616C119.023 25.36 118.903 25.04 118.903 24.656V10.664C118.903 10.248 119.039 9.90401 119.311 9.63201C119.599 9.34401 119.951 9.20001 120.367 9.20001C120.591 9.20001 120.823 9.24801 121.063 9.34401C121.303 9.42401 121.479 9.55201 121.591 9.72801L130.735 21.392L130.327 21.68V10.544C130.327 10.16 130.447 9.84001 130.687 9.58401C130.927 9.32801 131.247 9.20001 131.647 9.20001ZM141.855 9.20001H149.895C150.311 9.20001 150.655 9.33601 150.927 9.60801C151.215 9.86401 151.359 10.2 151.359 10.616C151.359 11.016 151.215 11.344 150.927 11.6C150.655 11.84 150.311 11.96 149.895 11.96H143.175L143.391 11.552V16.232L143.199 16.04H148.815C149.231 16.04 149.575 16.176 149.847 16.448C150.135 16.704 150.279 17.04 150.279 17.456C150.279 17.856 150.135 18.184 149.847 18.44C149.575 18.68 149.231 18.8 148.815 18.8H143.271L143.391 18.608V23.456L143.199 23.24H149.895C150.311 23.24 150.655 23.384 150.927 23.672C151.215 23.944 151.359 24.264 151.359 24.632C151.359 25.032 151.215 25.36 150.927 25.616C150.655 25.872 150.311 26 149.895 26H141.855C141.439 26 141.087 25.864 140.799 25.592C140.527 25.304 140.391 24.952 140.391 24.536V10.664C140.391 10.248 140.527 9.90401 140.799 9.63201C141.087 9.34401 141.439 9.20001 141.855 9.20001Z" fill="white"/>
<path d="M4.33044 43.2974C4.03478 43.2974 3.7287 43.2817 3.41217 43.2504C3.09565 43.2226 2.7913 43.1652 2.49913 43.0783C2.20696 42.9948 1.93913 42.873 1.69565 42.713C1.45217 42.5565 1.25391 42.3478 1.10087 42.087C0.777393 41.6174 0.615654 41.007 0.615654 40.2557C0.615654 40.2139 0.615654 40.1722 0.615654 40.1304C0.615654 40.0922 0.617393 40.0504 0.620872 40.0052C0.645219 39.5391 0.725219 39.04 0.860872 38.5078C0.996524 37.9722 1.19652 37.3809 1.46087 36.7339C1.6 36.7896 1.7287 36.8417 1.84696 36.8904C1.96522 36.9391 2.0887 36.9896 2.21739 37.0417C1.96696 37.6748 1.77391 38.2678 1.63826 38.8209C1.50609 39.3704 1.44 39.8557 1.44 40.2765C1.44 40.8365 1.55304 41.287 1.77913 41.6278C1.88 41.7739 1.99652 41.8957 2.1287 41.993C2.26087 42.0904 2.40174 42.1704 2.5513 42.233C2.70087 42.2991 2.85391 42.3478 3.01043 42.3791C3.17043 42.4139 3.3287 42.4383 3.48522 42.4522C3.64174 42.4661 3.7913 42.473 3.93391 42.473C4.08 42.4765 4.21217 42.4783 4.33044 42.4783C4.43478 42.4783 4.58261 42.4696 4.77391 42.4522C4.96522 42.4348 5.17217 42.4052 5.39478 42.3635C5.62087 42.3217 5.8487 42.2661 6.07826 42.1965C6.3113 42.127 6.52174 42.0417 6.70957 41.9409C6.89739 41.84 7.05043 41.72 7.1687 41.5809C7.29044 41.4417 7.3513 41.28 7.3513 41.0957C7.3513 41.047 7.33044 40.9878 7.2887 40.9183C7.25043 40.8522 7.18609 40.7809 7.09565 40.7043C7.00522 40.6313 6.88696 40.553 6.74087 40.4696C6.59478 40.3896 6.41739 40.3113 6.2087 40.2348C6.08348 40.193 5.96 40.153 5.83826 40.1148C5.72 40.08 5.60522 40.0487 5.49391 40.0209C5.38609 39.993 5.28696 39.9687 5.19652 39.9478C5.10957 39.927 5.03478 39.9113 4.97217 39.9009L5.02957 39.0765L9.05217 39.0817V39.8957H7.38261C7.53913 40.0243 7.66783 40.1461 7.7687 40.2609C7.86957 40.3791 7.94957 40.4887 8.0087 40.5896C8.0713 40.6904 8.11304 40.7826 8.13391 40.8661C8.15826 40.953 8.17043 41.0296 8.17043 41.0957C8.16696 41.3774 8.10087 41.6278 7.97217 41.847C7.84348 42.0661 7.67478 42.2574 7.46609 42.4209C7.25739 42.5843 7.01739 42.7217 6.74609 42.833C6.47826 42.9443 6.20348 43.0348 5.92174 43.1043C5.64 43.1739 5.36 43.2226 5.08174 43.2504C4.80696 43.2817 4.55652 43.2974 4.33044 43.2974ZM8.84878 39.0817H9.45399C9.66269 39.0817 9.85399 39.0748 10.0279 39.0609C10.2053 39.047 10.3653 39.0174 10.5079 38.9722C10.654 38.9235 10.7827 38.8557 10.894 38.7687C11.0088 38.6817 11.1096 38.5635 11.1966 38.4139C11.2488 38.327 11.2783 38.2174 11.2853 38.0852C11.2888 38.0504 11.2905 38.0174 11.2905 37.9861C11.2905 37.8817 11.2801 37.7617 11.2592 37.6261C11.2383 37.487 11.2036 37.3304 11.1549 37.1565C11.1062 36.9826 11.0523 36.8104 10.9931 36.64C10.9375 36.4661 10.8766 36.2991 10.8105 36.1391C10.7479 35.9757 10.6905 35.8261 10.6383 35.6904L11.374 35.32C11.4401 35.48 11.5096 35.6539 11.5827 35.8417C11.6592 36.0261 11.7305 36.2174 11.7966 36.4157C11.8627 36.6139 11.9218 36.8174 11.974 37.0261C12.0262 37.2313 12.0627 37.433 12.0836 37.6313C12.094 37.7391 12.0992 37.8452 12.0992 37.9496C12.0992 38.0365 12.0923 38.1496 12.0783 38.2887C12.0679 38.4243 12.0262 38.5739 11.9531 38.7374C11.8523 38.96 11.7288 39.1461 11.5827 39.2957C11.4401 39.4452 11.2731 39.5652 11.0818 39.6557C10.8905 39.7426 10.6766 39.8052 10.4401 39.8435C10.207 39.8783 9.95313 39.8957 9.67834 39.8957H8.84878V39.0817ZM11.2801 33.447L10.5131 34.2139L9.74617 33.447L10.5131 32.68L11.2801 33.447ZM15.9822 39.8957C15.6657 39.8957 15.3822 39.8626 15.1318 39.7965C14.8813 39.727 14.6692 39.6174 14.4953 39.4678C14.3213 39.3183 14.1874 39.1252 14.0935 38.8887C14.0031 38.6487 13.9579 38.3583 13.9579 38.0174C13.9579 37.76 13.9579 37.473 13.9579 37.1565C13.9613 36.84 13.9631 36.5113 13.9631 36.1704C13.9631 35.8296 13.9596 35.4835 13.9526 35.1322C13.9492 34.7809 13.9422 34.44 13.9318 34.1096C13.9213 33.7757 13.9057 33.4609 13.8848 33.1652C13.864 32.8696 13.8379 32.6052 13.8066 32.3722L14.6205 32.2261C14.6518 32.4104 14.6779 32.6278 14.6987 32.8783C14.7196 33.1287 14.737 33.3983 14.7509 33.687C14.7648 33.9757 14.7735 34.2765 14.777 34.5896C14.784 34.8991 14.7874 35.2035 14.7874 35.5026C14.7874 35.9304 14.7892 36.3426 14.7926 36.7391C14.7926 36.8713 14.7926 37.0052 14.7926 37.1409C14.7926 37.4052 14.7909 37.6696 14.7874 37.9339C14.7874 38.16 14.8048 38.3461 14.8396 38.4922C14.8779 38.6383 14.9405 38.7565 15.0274 38.847C15.1179 38.9339 15.2361 38.9948 15.3822 39.0296C15.5283 39.0643 15.7126 39.0817 15.9353 39.0817H16.0866V39.8957H15.9822ZM22.2348 39.0817V39.8957H22.0679C21.7826 39.8957 21.5357 39.8591 21.327 39.7861C21.1218 39.7096 20.9565 39.5722 20.8313 39.3739C20.5739 39.687 20.2296 39.8435 19.7983 39.8435C19.5374 39.8435 19.2505 39.7809 18.9374 39.6557C18.607 39.5235 18.2383 39.3096 17.8313 39.0139C17.7061 39.1774 17.5757 39.3165 17.44 39.4313C17.3044 39.5426 17.16 39.633 17.007 39.7026C16.8574 39.7722 16.6974 39.8226 16.527 39.8539C16.36 39.8817 16.1809 39.8957 15.9896 39.8957H15.88V39.0817H15.9844C16.2487 39.0817 16.4765 39.033 16.6679 38.9357C16.8592 38.8348 17.0279 38.7026 17.1739 38.5391C17.32 38.3757 17.4487 38.1896 17.56 37.9809C17.6748 37.7687 17.7879 37.5513 17.8992 37.3287C17.9861 37.1478 18.08 36.967 18.1809 36.7861C18.2818 36.6052 18.3948 36.4417 18.52 36.2957C18.6487 36.1496 18.7948 36.0313 18.9583 35.9409C19.1218 35.8504 19.3113 35.8052 19.527 35.8052C19.8261 35.8052 20.087 35.8765 20.3096 36.0191C20.5357 36.1583 20.7218 36.3409 20.8679 36.567C21.0139 36.7896 21.1218 37.04 21.1913 37.3183C21.2435 37.5409 21.2696 37.7635 21.2696 37.9861C21.2696 38.0417 21.2679 38.0991 21.2644 38.1583C21.2644 38.287 21.2835 38.407 21.3218 38.5183C21.3635 38.6296 21.4192 38.727 21.4887 38.8104C21.5583 38.8939 21.6418 38.96 21.7392 39.0087C21.84 39.0574 21.9479 39.0817 22.0626 39.0817H22.2348ZM18.3061 38.3357C18.4557 38.447 18.607 38.5461 18.76 38.633C18.9165 38.7165 19.0661 38.7878 19.2087 38.847C19.3548 38.9061 19.4905 38.9513 19.6157 38.9826C19.7444 39.0139 19.8539 39.0296 19.9444 39.0296C19.9792 39.0296 20.0122 39.0278 20.0435 39.0243C20.0748 39.0209 20.1079 39.0139 20.1426 39.0035C20.247 38.9687 20.3305 38.8887 20.3931 38.7635C20.4592 38.6348 20.5026 38.4852 20.5235 38.3148C20.5339 38.2348 20.5392 38.153 20.5392 38.0696C20.5392 37.9757 20.5287 37.8557 20.5079 37.7096C20.487 37.56 20.4365 37.4035 20.3565 37.24C20.2765 37.0765 20.167 36.9391 20.0279 36.8278C19.8922 36.713 19.7252 36.647 19.527 36.6296C19.5131 36.6296 19.5009 36.6296 19.4905 36.6296C19.4174 36.6296 19.3479 36.6487 19.2818 36.687C19.2192 36.7252 19.1531 36.7896 19.0835 36.88C19.0174 36.967 18.9479 37.0783 18.8748 37.2139C18.8018 37.3496 18.72 37.5078 18.6296 37.6887L18.3061 38.3357ZM26.6746 39.0817V39.8957H26.5702C26.2363 39.8957 25.9528 39.8313 25.7198 39.7026C25.4867 39.5704 25.2902 39.4017 25.1302 39.1965C25.012 39.3148 24.8798 39.4174 24.7337 39.5043C24.5911 39.5913 24.4259 39.6643 24.238 39.7235C24.0537 39.7791 23.8433 39.8226 23.6067 39.8539C23.3737 39.8817 23.1059 39.8957 22.8033 39.8957H22.0207V39.0817H22.8033C23.158 39.0817 23.4589 39.0539 23.7059 38.9983C23.9563 38.9391 24.158 38.8539 24.3111 38.7426C24.4676 38.6278 24.5807 38.487 24.6502 38.32C24.7198 38.1496 24.7546 37.9513 24.7546 37.7252C24.7546 37.5374 24.7407 37.3461 24.7128 37.1513C24.6885 36.9565 24.6415 36.7357 24.572 36.4887C24.718 36.4504 24.8502 36.4139 24.9685 36.3791C25.0902 36.3409 25.2189 36.3026 25.3546 36.2643C25.3824 36.3687 25.4067 36.4748 25.4276 36.5826C25.4485 36.687 25.4659 36.7983 25.4798 36.9165C25.4972 37.0313 25.5128 37.1583 25.5267 37.2974C25.5407 37.4365 25.5546 37.5913 25.5685 37.7617C25.5789 37.9009 25.5998 38.0487 25.6311 38.2052C25.6624 38.3583 25.7146 38.5009 25.7876 38.633C25.8607 38.7617 25.9598 38.8696 26.085 38.9565C26.2102 39.04 26.372 39.0817 26.5702 39.0817H26.6746ZM24.285 34.2191L23.5233 34.9809L22.7511 34.2139L23.5128 33.447L24.285 34.2191ZM26.1372 34.2296L25.3807 34.9913L24.6085 34.2191L25.3702 33.4574L26.1372 34.2296ZM26.4621 39.0817H27.5942C28.0638 39.0817 28.5386 39.0348 29.0186 38.9409C29.4986 38.8435 29.9734 38.7165 30.4429 38.56C30.916 38.4035 31.3803 38.2243 31.836 38.0226C32.2951 37.8209 32.7386 37.6122 33.1664 37.3965L31.6116 36.7496C31.4447 36.68 31.2812 36.6104 31.1212 36.5409C30.9647 36.4678 30.8116 36.4017 30.6621 36.3426C30.516 36.2835 30.3768 36.2365 30.2447 36.2017C30.1125 36.1635 29.989 36.1443 29.8742 36.1443C29.7421 36.1443 29.6168 36.1687 29.4986 36.2174C29.3803 36.2626 29.269 36.3235 29.1647 36.4C29.0638 36.4765 28.9699 36.5617 28.8829 36.6557C28.796 36.7496 28.7177 36.8435 28.6481 36.9374C28.5821 37.0313 28.5229 37.12 28.4708 37.2035C28.4221 37.2835 28.3838 37.3478 28.356 37.3965L27.6568 36.9791C27.6951 36.8991 27.749 36.8017 27.8186 36.687C27.8916 36.5687 27.9942 36.4296 28.1264 36.2696C28.3873 35.953 28.6638 35.7165 28.956 35.56C29.2516 35.4035 29.5577 35.3252 29.8742 35.3252C30.0377 35.3252 30.2029 35.3443 30.3699 35.3826C30.5403 35.4209 30.7125 35.4713 30.8864 35.5339C31.0603 35.5965 31.236 35.6696 31.4134 35.753C31.5942 35.833 31.7768 35.9165 31.9612 36.0035C32.1629 36.0974 32.3455 36.1878 32.509 36.2748C32.676 36.3583 32.8395 36.44 32.9994 36.52C33.1594 36.5965 33.3247 36.673 33.4951 36.7496C33.669 36.8261 33.8638 36.9043 34.0794 36.9843C34.1073 37.1374 34.1351 37.2765 34.1629 37.4017C34.1908 37.5235 34.2186 37.6574 34.2464 37.8035C34.1247 37.8522 34.0255 37.8939 33.949 37.9287C33.876 37.96 33.8047 37.993 33.7351 38.0278C33.669 38.0591 33.5977 38.0957 33.5212 38.1374C33.4447 38.1757 33.3438 38.2261 33.2186 38.2887C32.8429 38.473 32.4342 38.6609 31.9925 38.8522C31.5508 39.0435 31.0881 39.2174 30.6047 39.3739C30.1247 39.527 29.6308 39.6522 29.1229 39.7496C28.6151 39.847 28.1055 39.8957 27.5942 39.8957H26.4621V39.0817ZM30.6047 33.3948L29.8377 34.1617L29.0708 33.3948L29.8377 32.6278L30.6047 33.3948ZM38.1072 39.8957C37.7907 39.8957 37.5072 39.8626 37.2568 39.7965C37.0063 39.727 36.7942 39.6174 36.6203 39.4678C36.4463 39.3183 36.3124 39.1252 36.2185 38.8887C36.1281 38.6487 36.0829 38.3583 36.0829 38.0174C36.0829 37.76 36.0829 37.473 36.0829 37.1565C36.0863 36.84 36.0881 36.5113 36.0881 36.1704C36.0881 35.8296 36.0846 35.4835 36.0776 35.1322C36.0742 34.7809 36.0672 34.44 36.0568 34.1096C36.0463 33.7757 36.0307 33.4609 36.0098 33.1652C35.989 32.8696 35.9629 32.6052 35.9316 32.3722L36.7455 32.2261C36.7768 32.4104 36.8029 32.6278 36.8237 32.8783C36.8446 33.1287 36.862 33.3983 36.8759 33.687C36.8898 33.9757 36.8985 34.2765 36.902 34.5896C36.909 34.8991 36.9124 35.2035 36.9124 35.5026C36.9124 35.9304 36.9142 36.3426 36.9176 36.7391C36.9176 36.8713 36.9176 37.0052 36.9176 37.1409C36.9176 37.4052 36.9159 37.6696 36.9124 37.9339C36.9124 38.16 36.9298 38.3461 36.9646 38.4922C37.0029 38.6383 37.0655 38.7565 37.1524 38.847C37.2429 38.9339 37.3611 38.9948 37.5072 39.0296C37.6533 39.0643 37.8376 39.0817 38.0603 39.0817H38.2116V39.8957H38.1072ZM38.1094 39.0817C38.3111 39.0817 38.4937 39.0435 38.6572 38.967C38.8242 38.887 38.9737 38.7826 39.1059 38.6539C39.2415 38.5217 39.3615 38.3704 39.4659 38.2C39.5702 38.0261 39.6607 37.8452 39.7372 37.6574C39.8172 37.4661 39.8833 37.2748 39.9355 37.0835C39.9911 36.8922 40.0363 36.7096 40.0711 36.5357L40.8902 36.6974C40.8624 36.7913 40.8294 36.9026 40.7911 37.0313C40.7529 37.16 40.7163 37.2957 40.6815 37.4383C40.6468 37.5809 40.6172 37.7252 40.5929 37.8713C40.5685 38.0174 40.5563 38.1548 40.5563 38.2835C40.5563 38.3878 40.565 38.4922 40.5824 38.5965C40.6033 38.6974 40.6381 38.7878 40.6868 38.8678C40.7389 38.9443 40.8085 39.007 40.8955 39.0557C40.9824 39.1043 41.092 39.1287 41.2242 39.1287C41.4085 39.1287 41.5737 39.0835 41.7198 38.993C41.8694 38.8991 42.0015 38.7757 42.1163 38.6226C42.2311 38.4696 42.3302 38.2957 42.4137 38.1009C42.5007 37.9061 42.5755 37.7078 42.6381 37.5061C42.7007 37.3009 42.7511 37.1009 42.7894 36.9061C42.8311 36.7078 42.8642 36.5322 42.8885 36.3791C43.0346 36.407 43.1685 36.433 43.2902 36.4574C43.4155 36.4817 43.5459 36.5061 43.6815 36.5304V36.5357C43.6676 36.6087 43.6485 36.7061 43.6242 36.8278C43.6033 36.9496 43.5824 37.08 43.5615 37.2191C43.5407 37.3583 43.5233 37.4991 43.5094 37.6417C43.4955 37.7843 43.4885 37.913 43.4885 38.0278C43.4885 38.1739 43.5007 38.3148 43.525 38.4504C43.5494 38.5826 43.5946 38.7009 43.6607 38.8052C43.7268 38.9061 43.8155 38.9878 43.9268 39.0504C44.0415 39.113 44.1859 39.1443 44.3598 39.1443C44.5129 39.1443 44.645 39.1183 44.7563 39.0661C44.8676 39.0139 44.9581 38.9426 45.0276 38.8522C45.1007 38.7583 45.1546 38.6504 45.1894 38.5287C45.2242 38.4035 45.2415 38.2678 45.2415 38.1217C45.2415 37.9304 45.2172 37.7252 45.1685 37.5061C45.1233 37.287 45.0659 37.0713 44.9963 36.8591C44.9268 36.6435 44.852 36.4417 44.772 36.2539C44.6955 36.0661 44.6259 35.9096 44.5633 35.7843L45.2885 35.3983C45.3198 35.4609 45.3598 35.5478 45.4085 35.6591C45.4607 35.767 45.5146 35.8922 45.5702 36.0348C45.6294 36.1739 45.6885 36.327 45.7476 36.4939C45.8068 36.6609 45.8607 36.8348 45.9094 37.0157C45.9581 37.193 45.9963 37.3757 46.0242 37.5635C46.0555 37.7478 46.0711 37.9287 46.0711 38.1061C46.0711 38.3878 46.0311 38.6435 45.9511 38.873C45.8746 39.1026 45.7563 39.2991 45.5963 39.4626C45.4398 39.6226 45.2415 39.7461 45.0015 39.833C44.772 39.9165 44.5042 39.9583 44.1981 39.9583C44.1876 39.9583 44.1755 39.9583 44.1615 39.9583C44.0363 39.9583 43.9094 39.9374 43.7807 39.8957C43.652 39.8504 43.5268 39.7896 43.405 39.713C43.2833 39.633 43.1685 39.5409 43.0607 39.4365C42.9563 39.3322 42.8642 39.2191 42.7842 39.0974C42.5546 39.3617 42.3076 39.5722 42.0433 39.7287C41.7789 39.8817 41.5059 39.9583 41.2242 39.9583C41.1024 39.9583 40.9755 39.9409 40.8433 39.9061C40.7146 39.8678 40.5894 39.8122 40.4676 39.7391C40.3459 39.6661 40.2329 39.5757 40.1285 39.4678C40.0276 39.36 39.9459 39.2348 39.8833 39.0922C39.7685 39.2139 39.6485 39.3252 39.5233 39.4261C39.4015 39.5235 39.2694 39.607 39.1268 39.6765C38.9842 39.7461 38.8294 39.8 38.6624 39.8383C38.4955 39.8765 38.3111 39.8957 38.1094 39.8957H38.005V39.0817H38.1094ZM62.5993 39.0817V39.8957H62.495C62.2237 39.8957 61.9576 39.873 61.6967 39.8278C61.4393 39.7791 61.1941 39.7026 60.9611 39.5983C60.728 39.4939 60.5124 39.3583 60.3141 39.1913C60.1158 39.0243 59.9437 38.8209 59.7976 38.5809C59.6654 38.7826 59.4967 38.9565 59.2915 39.1026C59.0898 39.2452 58.8654 39.3652 58.6185 39.4626C58.375 39.56 58.1158 39.6383 57.8411 39.6974C57.5663 39.7565 57.2915 39.8017 57.0167 39.833C56.7419 39.8643 56.4741 39.8835 56.2132 39.8904C56.0811 39.8939 55.9541 39.8957 55.8324 39.8957C55.7106 39.8957 55.5941 39.8939 55.4828 39.8904C55.1732 39.8835 54.8463 39.8696 54.5019 39.8487C54.1576 39.8243 53.815 39.7826 53.4741 39.7235C53.1367 39.6609 52.8115 39.5757 52.4985 39.4678C52.1889 39.3565 51.9158 39.2122 51.6793 39.0348C51.4428 38.8574 51.255 38.64 51.1158 38.3826C50.9767 38.1217 50.9071 37.8104 50.9071 37.4487C50.9071 37.3304 50.9245 37.193 50.9593 37.0365C50.9941 36.8765 51.0393 36.7165 51.095 36.5565C51.1541 36.393 51.2185 36.2365 51.288 36.087C51.3611 35.9339 51.4324 35.8017 51.5019 35.6904L52.1645 36.1757C52.0985 36.2904 52.0376 36.3983 51.9819 36.4991C51.9298 36.6 51.8828 36.7009 51.8411 36.8017C51.8028 36.8991 51.7698 37 51.7419 37.1043C51.7176 37.2087 51.7002 37.3217 51.6898 37.4435C51.6967 37.7739 51.8011 38.0435 52.0028 38.2522C52.2045 38.4574 52.4758 38.6191 52.8167 38.7374C53.1576 38.8557 53.5576 38.9391 54.0167 38.9878C54.4758 39.033 54.968 39.0591 55.4932 39.0661C55.5385 39.0661 55.5854 39.0661 55.6341 39.0661C55.8289 39.0661 56.0532 39.0609 56.3071 39.0504C56.5611 39.04 56.8324 39.0174 57.1211 38.9826C57.4098 38.9478 57.6898 38.8974 57.9611 38.8313C58.2324 38.7652 58.4724 38.68 58.6811 38.5757C58.8932 38.4678 59.0619 38.3374 59.1871 38.1843C59.3158 38.0313 59.3802 37.8487 59.3802 37.6365C59.3802 37.487 59.335 37.3235 59.2445 37.1461C59.1541 36.9687 59.0341 36.7861 58.8845 36.5983C58.735 36.407 58.5628 36.2139 58.368 36.0191C58.1767 35.8243 57.9785 35.6348 57.7732 35.4504C57.5715 35.2626 57.3698 35.0852 57.168 34.9183C56.9698 34.7513 56.7889 34.6 56.6254 34.4643C56.6428 34.2765 56.6619 34.0957 56.6828 33.9217C56.7071 33.7443 56.728 33.5652 56.7454 33.3843L61.0758 31.5791L61.3993 32.3304L57.2463 34C57.528 34.2365 57.8132 34.4783 58.1019 34.7252C58.3941 34.9687 58.6654 35.2174 58.9158 35.4713C59.1663 35.7217 59.3871 35.9774 59.5785 36.2383C59.7698 36.4991 59.9106 36.7617 60.0011 37.0261C60.0637 37.1965 60.128 37.3704 60.1941 37.5478C60.2637 37.7217 60.3506 37.8904 60.455 38.0539C60.5593 38.2139 60.6863 38.3652 60.8358 38.5078C60.9854 38.647 61.1715 38.7687 61.3941 38.873C61.5402 38.9426 61.7037 38.9948 61.8845 39.0296C62.0654 39.0609 62.2654 39.0783 62.4845 39.0817H62.5993ZM60.8098 30.7548L56.735 32.4765L56.7715 31.9235L60.6063 30.3217L60.8098 30.7548ZM66.2787 39.0817V39.8957H66.1744C65.8404 39.8957 65.557 39.8313 65.3239 39.7026C65.0909 39.5704 64.8944 39.4017 64.7344 39.1965C64.4944 39.433 64.2004 39.6087 63.8526 39.7235C63.5048 39.8383 63.0822 39.8957 62.5848 39.8957H62.3917V39.0817H62.5848C63.2039 39.0817 63.6544 38.9687 63.9361 38.7426C64.2178 38.513 64.3587 38.1739 64.3587 37.7252C64.3587 37.5374 64.3448 37.3461 64.317 37.1513C64.2926 36.9565 64.2457 36.7357 64.1761 36.4887C64.3222 36.4504 64.4544 36.4139 64.5726 36.3791C64.6944 36.3409 64.8231 36.3026 64.9587 36.2643C64.9865 36.3687 65.0109 36.4748 65.0317 36.5826C65.0526 36.687 65.07 36.7983 65.0839 36.9165C65.1013 37.0313 65.117 37.1583 65.1309 37.2974C65.1448 37.4365 65.1587 37.5913 65.1726 37.7617C65.1831 37.9009 65.2039 38.0487 65.2352 38.2052C65.2665 38.3583 65.3187 38.5009 65.3917 38.633C65.4648 38.7617 65.5639 38.8696 65.6891 38.9565C65.8144 39.04 65.9761 39.0817 66.1744 39.0817H66.2787ZM64.8178 34.3287L64.0509 35.0957L63.2839 34.3287L64.0509 33.5617L64.8178 34.3287ZM66.1758 39.0817C66.3775 39.0817 66.5601 39.0435 66.7236 38.967C66.8906 38.887 67.0401 38.7826 67.1723 38.6539C67.308 38.5217 67.428 38.3704 67.5323 38.2C67.6367 38.0261 67.7271 37.8452 67.8036 37.6574C67.8836 37.4661 67.9497 37.2748 68.0019 37.0835C68.0575 36.8922 68.1027 36.7096 68.1375 36.5357L68.9567 36.6974C68.9288 36.7913 68.8958 36.9026 68.8575 37.0313C68.8193 37.16 68.7827 37.2957 68.748 37.4383C68.7132 37.5809 68.6836 37.7252 68.6593 37.8713C68.6349 38.0174 68.6227 38.1548 68.6227 38.2835C68.6227 38.3878 68.6314 38.4922 68.6488 38.5965C68.6697 38.6974 68.7045 38.7878 68.7532 38.8678C68.8053 38.9443 68.8749 39.007 68.9619 39.0557C69.0488 39.1043 69.1584 39.1287 69.2906 39.1287C69.4749 39.1287 69.6401 39.0835 69.7862 38.993C69.9358 38.8991 70.068 38.7757 70.1827 38.6226C70.2975 38.4696 70.3967 38.2957 70.4801 38.1009C70.5671 37.9061 70.6419 37.7078 70.7045 37.5061C70.7671 37.3009 70.8175 37.1009 70.8558 36.9061C70.8975 36.7078 70.9306 36.5322 70.9549 36.3791C71.101 36.407 71.2349 36.433 71.3567 36.4574C71.4819 36.4817 71.6123 36.5061 71.748 36.5304V36.5357C71.734 36.6087 71.7149 36.7061 71.6906 36.8278C71.6697 36.9496 71.6488 37.08 71.628 37.2191C71.6071 37.3583 71.5897 37.4991 71.5758 37.6417C71.5619 37.7843 71.5549 37.913 71.5549 38.0278C71.5549 38.1739 71.5671 38.3148 71.5914 38.4504C71.6158 38.5826 71.661 38.7009 71.7271 38.8052C71.7932 38.9061 71.8819 38.9878 71.9932 39.0504C72.108 39.113 72.2523 39.1443 72.4262 39.1443C72.5793 39.1443 72.7114 39.1183 72.8227 39.0661C72.934 39.0139 73.0245 38.9426 73.094 38.8522C73.1671 38.7583 73.221 38.6504 73.2558 38.5287C73.2906 38.4035 73.308 38.2678 73.308 38.1217C73.308 37.9304 73.2836 37.7252 73.2349 37.5061C73.1897 37.287 73.1323 37.0713 73.0627 36.8591C72.9932 36.6435 72.9184 36.4417 72.8384 36.2539C72.7619 36.0661 72.6923 35.9096 72.6297 35.7843L73.3549 35.3983C73.3862 35.4609 73.4262 35.5478 73.4749 35.6591C73.5271 35.767 73.581 35.8922 73.6367 36.0348C73.6958 36.1739 73.7549 36.327 73.814 36.4939C73.8732 36.6609 73.9271 36.8348 73.9758 37.0157C74.0245 37.193 74.0627 37.3757 74.0906 37.5635C74.1219 37.7478 74.1375 37.9287 74.1375 38.1061C74.1375 38.3878 74.0975 38.6435 74.0175 38.873C73.941 39.1026 73.8227 39.2991 73.6627 39.4626C73.5062 39.6226 73.308 39.7461 73.068 39.833C72.8384 39.9165 72.5706 39.9583 72.2645 39.9583C72.254 39.9583 72.2419 39.9583 72.228 39.9583C72.1027 39.9583 71.9758 39.9374 71.8471 39.8957C71.7184 39.8504 71.5932 39.7896 71.4714 39.713C71.3497 39.633 71.2349 39.5409 71.1271 39.4365C71.0227 39.3322 70.9306 39.2191 70.8506 39.0974C70.621 39.3617 70.374 39.5722 70.1097 39.7287C69.8453 39.8817 69.5723 39.9583 69.2906 39.9583C69.1688 39.9583 69.0419 39.9409 68.9097 39.9061C68.781 39.8678 68.6558 39.8122 68.534 39.7391C68.4123 39.6661 68.2993 39.5757 68.1949 39.4678C68.094 39.36 68.0123 39.2348 67.9497 39.0922C67.8349 39.2139 67.7149 39.3252 67.5897 39.4261C67.468 39.5235 67.3358 39.607 67.1932 39.6765C67.0506 39.7461 66.8958 39.8 66.7288 39.8383C66.5619 39.8765 66.3775 39.8957 66.1758 39.8957H66.0714V39.0817H66.1758ZM82.7875 43.2974C82.4918 43.2974 82.1857 43.2817 81.8692 43.2504C81.5527 43.2226 81.2483 43.1652 80.9562 43.0783C80.664 42.9948 80.3962 42.873 80.1527 42.713C79.9092 42.5565 79.7109 42.3478 79.5579 42.087C79.2344 41.6174 79.0727 41.007 79.0727 40.2557C79.0727 40.2139 79.0727 40.1722 79.0727 40.1304C79.0727 40.0922 79.0744 40.0504 79.0779 40.0052C79.1022 39.5391 79.1822 39.04 79.3179 38.5078C79.4536 37.9722 79.6536 37.3809 79.9179 36.7339C80.057 36.7896 80.1857 36.8417 80.304 36.8904C80.4222 36.9391 80.5457 36.9896 80.6744 37.0417C80.424 37.6748 80.2309 38.2678 80.0953 38.8209C79.9631 39.3704 79.897 39.8557 79.897 40.2765C79.897 40.8365 80.0101 41.287 80.2362 41.6278C80.337 41.7739 80.4536 41.8957 80.5857 41.993C80.7179 42.0904 80.8588 42.1704 81.0083 42.233C81.1579 42.2991 81.3109 42.3478 81.4675 42.3791C81.6275 42.4139 81.7857 42.4383 81.9422 42.4522C82.0988 42.4661 82.2483 42.473 82.3909 42.473C82.537 42.4765 82.6692 42.4783 82.7875 42.4783C82.8918 42.4783 83.0396 42.4696 83.2309 42.4522C83.4222 42.4348 83.6292 42.4052 83.8518 42.3635C84.0779 42.3217 84.3057 42.2661 84.5353 42.1965C84.7683 42.127 84.9788 42.0417 85.1666 41.9409C85.3544 41.84 85.5075 41.72 85.6257 41.5809C85.7475 41.4417 85.8083 41.28 85.8083 41.0957C85.8083 41.047 85.7875 40.9878 85.7457 40.9183C85.7075 40.8522 85.6431 40.7809 85.5527 40.7043C85.4622 40.6313 85.344 40.553 85.1979 40.4696C85.0518 40.3896 84.8744 40.3113 84.6657 40.2348C84.5405 40.193 84.417 40.153 84.2953 40.1148C84.177 40.08 84.0622 40.0487 83.9509 40.0209C83.8431 39.993 83.744 39.9687 83.6536 39.9478C83.5666 39.927 83.4918 39.9113 83.4292 39.9009L83.4866 39.0765L87.5092 39.0817V39.8957H85.8396C85.9962 40.0243 86.1249 40.1461 86.2257 40.2609C86.3266 40.3791 86.4066 40.4887 86.4657 40.5896C86.5283 40.6904 86.5701 40.7826 86.5909 40.8661C86.6153 40.953 86.6275 41.0296 86.6275 41.0957C86.624 41.3774 86.5579 41.6278 86.4292 41.847C86.3005 42.0661 86.1318 42.2574 85.9231 42.4209C85.7144 42.5843 85.4744 42.7217 85.2031 42.833C84.9353 42.9443 84.6605 43.0348 84.3788 43.1043C84.097 43.1739 83.817 43.2226 83.5388 43.2504C83.264 43.2817 83.0136 43.2974 82.7875 43.2974ZM87.3058 39.0817H87.431C87.6502 39.0817 87.8362 39.0643 87.9893 39.0296C88.1458 38.9913 88.2762 38.9461 88.3806 38.8939C88.4849 38.8417 88.5702 38.7843 88.6362 38.7217C88.7023 38.6591 88.7562 38.6 88.798 38.5443C88.8606 38.4574 88.9145 38.3635 88.9597 38.2626C89.0084 38.1583 89.0502 38.0487 89.0849 37.9339C89.1197 37.8191 89.151 37.6991 89.1789 37.5739C89.2067 37.4452 89.2345 37.313 89.2623 37.1774C89.2902 37.0452 89.3162 36.9183 89.3406 36.7965C89.3684 36.6713 89.398 36.553 89.4293 36.4417L90.1545 36.6661C90.1475 36.6835 90.1354 36.7339 90.118 36.8174C90.1006 36.9009 90.0832 36.9948 90.0658 37.0991C90.0484 37.2 90.0345 37.2991 90.0241 37.3965C90.0136 37.4626 90.0084 37.5183 90.0084 37.5635C90.0084 37.5843 90.0102 37.6017 90.0136 37.6157C90.0136 37.7061 90.0171 37.8035 90.0241 37.9078C90.0345 38.0122 90.0554 38.1183 90.0867 38.2261C90.1215 38.3339 90.1702 38.4435 90.2328 38.5548C90.2989 38.6626 90.3893 38.767 90.5041 38.8678C90.5528 38.7565 90.6258 38.6191 90.7232 38.4557C90.8241 38.2887 90.9441 38.1096 91.0832 37.9183C91.2258 37.7235 91.3841 37.5235 91.558 37.3183C91.7354 37.113 91.9249 36.9148 92.1267 36.7235C92.3145 36.5461 92.518 36.3809 92.7371 36.2278C92.9562 36.0748 93.1841 35.9443 93.4206 35.8365C93.6571 35.7287 93.8989 35.647 94.1458 35.5913C94.3302 35.553 94.5128 35.5339 94.6936 35.5339C94.7562 35.5339 94.8623 35.5409 95.0119 35.5548C95.1615 35.5652 95.3493 35.6226 95.5754 35.727C95.8049 35.8278 96.0206 35.9791 96.2223 36.1809C96.3928 36.3965 96.5197 36.6313 96.6032 36.8852C96.6762 37.1043 96.7128 37.327 96.7128 37.553C96.7128 37.5878 96.7075 37.68 96.6971 37.8296C96.6867 37.9791 96.6206 38.1774 96.4989 38.4243C96.3806 38.6678 96.2032 38.887 95.9667 39.0817H97.5997V39.8957H96.1806C96.0102 39.8957 95.8449 39.8887 95.6849 39.8748C95.5249 39.8609 95.3789 39.8452 95.2467 39.8278C95.118 39.8104 95.0084 39.793 94.918 39.7757C94.8275 39.7583 94.7667 39.7461 94.7354 39.7391C94.3667 39.8609 93.9928 39.9461 93.6136 39.9948C93.2345 40.0435 92.8745 40.0678 92.5336 40.0678C92.1684 40.0678 91.8328 40.0591 91.5267 40.0417C91.2206 40.0243 90.9423 39.9791 90.6919 39.9061C90.4449 39.833 90.2241 39.7217 90.0293 39.5722C89.8345 39.4191 89.6641 39.207 89.518 38.9357C89.278 39.2626 88.991 39.5043 88.6571 39.6609C88.3232 39.8174 87.9232 39.8957 87.4571 39.8957H87.3058V39.0817ZM91.2658 39.1183C91.4641 39.1565 91.6762 39.1843 91.9023 39.2017C92.0623 39.2157 92.2241 39.2226 92.3875 39.2226C92.4536 39.2226 92.5197 39.2209 92.5858 39.2174C92.8745 39.2104 93.1632 39.1878 93.4519 39.1496C93.7406 39.1078 94.0119 39.0539 94.2658 38.9878C94.5197 38.9217 94.7475 38.8435 94.9493 38.753C95.151 38.6626 95.3128 38.5635 95.4345 38.4557C95.5806 38.3235 95.6936 38.1826 95.7736 38.033C95.8536 37.8835 95.9006 37.7322 95.9145 37.5791C95.918 37.5443 95.9197 37.5113 95.9197 37.48C95.9197 37.3652 95.8971 37.2452 95.8519 37.12C95.8102 36.9913 95.7354 36.8678 95.6275 36.7496C95.4641 36.6104 95.2971 36.5096 95.1267 36.447C94.9597 36.3843 94.791 36.353 94.6206 36.353C94.4536 36.3496 94.2867 36.3739 94.1197 36.4261C93.9528 36.4783 93.7875 36.5496 93.6241 36.64C93.4641 36.727 93.3058 36.8296 93.1493 36.9478C92.9928 37.0626 92.8415 37.1843 92.6954 37.313C92.5319 37.4661 92.3736 37.6296 92.2206 37.8035C92.071 37.9739 91.9319 38.1426 91.8032 38.3096C91.678 38.473 91.5684 38.6261 91.4745 38.7687C91.3806 38.9113 91.311 39.0278 91.2658 39.1183ZM97.3957 39.0817H97.5209C97.74 39.0817 97.9261 39.0643 98.0791 39.0296C98.2357 38.9913 98.3661 38.9461 98.4704 38.8939C98.5748 38.8417 98.66 38.7843 98.7261 38.7217C98.7922 38.6591 98.8461 38.6 98.8878 38.5443C98.9504 38.4574 99.0043 38.3635 99.0496 38.2626C99.0983 38.1583 99.14 38.0487 99.1748 37.9339C99.2096 37.8191 99.2409 37.6991 99.2687 37.5739C99.2965 37.4452 99.3243 37.313 99.3522 37.1774C99.38 37.0452 99.4061 36.9183 99.4304 36.7965C99.4583 36.6713 99.4878 36.553 99.5191 36.4417L100.244 36.6661C100.237 36.6835 100.225 36.7339 100.208 36.8174C100.19 36.9009 100.173 36.9948 100.156 37.0991C100.138 37.2 100.124 37.2991 100.114 37.3965C100.103 37.4626 100.098 37.5183 100.098 37.5635C100.098 37.5843 100.1 37.6017 100.103 37.6157C100.103 37.7061 100.107 37.8035 100.114 37.9078C100.124 38.0122 100.145 38.1183 100.177 38.2261C100.211 38.3339 100.26 38.4435 100.323 38.5548C100.389 38.6626 100.479 38.767 100.594 38.8678C100.643 38.7565 100.716 38.6191 100.813 38.4557C100.914 38.2887 101.034 38.1096 101.173 37.9183C101.316 37.7235 101.474 37.5235 101.648 37.3183C101.825 37.113 102.015 36.9148 102.217 36.7235C102.404 36.5461 102.608 36.3809 102.827 36.2278C103.046 36.0748 103.274 35.9443 103.51 35.8365C103.747 35.7287 103.989 35.647 104.236 35.5913C104.42 35.553 104.603 35.5339 104.783 35.5339C104.846 35.5339 104.952 35.5409 105.102 35.5548C105.251 35.5652 105.439 35.6226 105.665 35.727C105.895 35.8278 106.11 35.9791 106.312 36.1809C106.483 36.3965 106.61 36.6313 106.693 36.8852C106.766 37.1043 106.803 37.327 106.803 37.553C106.803 37.5878 106.797 37.68 106.787 37.8296C106.777 37.9791 106.71 38.1774 106.589 38.4243C106.47 38.6678 106.293 38.887 106.057 39.0817H107.69V39.8957H106.27C106.1 39.8957 105.935 39.8887 105.775 39.8748C105.615 39.8609 105.469 39.8452 105.337 39.8278C105.208 39.8104 105.098 39.793 105.008 39.7757C104.917 39.7583 104.857 39.7461 104.825 39.7391C104.457 39.8609 104.083 39.9461 103.703 39.9948C103.324 40.0435 102.964 40.0678 102.623 40.0678C102.258 40.0678 101.923 40.0591 101.617 40.0417C101.31 40.0243 101.032 39.9791 100.782 39.9061C100.535 39.833 100.314 39.7217 100.119 39.5722C99.9243 39.4191 99.7539 39.207 99.6078 38.9357C99.3678 39.2626 99.0809 39.5043 98.747 39.6609C98.413 39.8174 98.013 39.8957 97.547 39.8957H97.3957V39.0817ZM101.356 39.1183C101.554 39.1565 101.766 39.1843 101.992 39.2017C102.152 39.2157 102.314 39.2226 102.477 39.2226C102.543 39.2226 102.61 39.2209 102.676 39.2174C102.964 39.2104 103.253 39.1878 103.542 39.1496C103.83 39.1078 104.102 39.0539 104.356 38.9878C104.61 38.9217 104.837 38.8435 105.039 38.753C105.241 38.6626 105.403 38.5635 105.524 38.4557C105.67 38.3235 105.783 38.1826 105.863 38.033C105.943 37.8835 105.99 37.7322 106.004 37.5791C106.008 37.5443 106.01 37.5113 106.01 37.48C106.01 37.3652 105.987 37.2452 105.942 37.12C105.9 36.9913 105.825 36.8678 105.717 36.7496C105.554 36.6104 105.387 36.5096 105.217 36.447C105.05 36.3843 104.881 36.353 104.71 36.353C104.543 36.3496 104.377 36.3739 104.21 36.4261C104.043 36.4783 103.877 36.5496 103.714 36.64C103.554 36.727 103.396 36.8296 103.239 36.9478C103.083 37.0626 102.931 37.1843 102.785 37.313C102.622 37.4661 102.463 37.6296 102.31 37.8035C102.161 37.9739 102.022 38.1426 101.893 38.3096C101.768 38.473 101.658 38.6261 101.564 38.7687C101.47 38.9113 101.401 39.0278 101.356 39.1183ZM107.485 39.0817H108.545C109.018 39.0817 109.472 39.0383 109.906 38.9513C110.345 38.8643 110.767 38.7496 111.174 38.607C111.585 38.4643 111.985 38.3026 112.374 38.1217C112.764 37.9409 113.146 37.7565 113.522 37.5687L113.835 37.4122C113.682 37.36 113.515 37.2922 113.334 37.2087C113.157 37.1252 112.972 37.0383 112.781 36.9478C112.59 36.8539 112.395 36.76 112.197 36.6661C111.999 36.5687 111.802 36.4835 111.607 36.4104C111.412 36.3339 111.223 36.2713 111.039 36.2226C110.854 36.1739 110.68 36.1496 110.517 36.1496C110.322 36.1496 110.141 36.2 109.974 36.3009C109.807 36.3983 109.658 36.5148 109.525 36.6504C109.397 36.7861 109.287 36.9252 109.197 37.0678C109.106 37.207 109.04 37.3165 108.999 37.3965L108.32 36.9374C108.428 36.7391 108.553 36.5426 108.696 36.3478C108.842 36.153 109.005 35.9809 109.186 35.8313C109.371 35.6783 109.572 35.5548 109.792 35.4609C110.014 35.367 110.256 35.32 110.517 35.32C110.753 35.32 110.992 35.353 111.232 35.4191C111.475 35.4852 111.717 35.5704 111.957 35.6748C112.2 35.7757 112.442 35.8887 112.682 36.0139C112.925 36.1391 113.167 36.2609 113.407 36.3791C113.647 36.4974 113.885 36.607 114.122 36.7078C114.359 36.8052 114.593 36.8783 114.826 36.927C114.84 37.007 114.854 37.08 114.868 37.1461C114.882 37.2122 114.896 37.2765 114.91 37.3391C114.924 37.4017 114.938 37.4661 114.952 37.5322C114.965 37.5948 114.981 37.6643 114.999 37.7409C114.936 37.7687 114.889 37.7896 114.858 37.8035C114.826 37.8174 114.792 37.833 114.753 37.8504C114.715 37.8678 114.665 37.8922 114.602 37.9235C114.539 37.9548 114.444 38.0017 114.315 38.0643C114.36 38.2209 114.428 38.3548 114.519 38.4661C114.612 38.5774 114.719 38.6713 114.837 38.7478C114.959 38.8209 115.085 38.88 115.218 38.9252C115.35 38.9704 115.479 39.0052 115.604 39.0296C115.732 39.0504 115.849 39.0643 115.953 39.0713C116.061 39.0783 116.148 39.0817 116.214 39.0817H116.392V39.8957H116.214C115.884 39.8957 115.576 39.8626 115.291 39.7965C115.009 39.7304 114.755 39.6348 114.529 39.5096C114.303 39.3843 114.108 39.2313 113.945 39.0504C113.781 38.8696 113.654 38.6643 113.564 38.4348C113.199 38.6191 112.819 38.8 112.426 38.9774C112.037 39.1513 111.633 39.3061 111.216 39.4417C110.799 39.5774 110.367 39.687 109.922 39.7704C109.477 39.8539 109.018 39.8957 108.545 39.8957H107.485V39.0817ZM111.211 33.3739L110.444 34.1409L109.677 33.3739L110.444 32.607L111.211 33.3739ZM116.181 39.0817H117.151C117.36 39.0817 117.57 39.0748 117.783 39.0609C117.995 39.047 118.193 39.0174 118.377 38.9722C118.565 38.9235 118.732 38.8557 118.878 38.7687C119.028 38.6817 119.146 38.5635 119.233 38.4139C119.285 38.327 119.315 38.2174 119.322 38.0852C119.325 38.0504 119.327 38.0174 119.327 37.9861C119.327 37.8817 119.316 37.7617 119.296 37.6261C119.275 37.487 119.24 37.3304 119.191 37.1565C119.143 36.9826 119.089 36.8104 119.03 36.64C118.974 36.4661 118.913 36.2991 118.847 36.1391C118.784 35.9757 118.727 35.8261 118.675 35.6904L119.41 35.32C119.476 35.48 119.546 35.6539 119.619 35.8417C119.696 36.0261 119.767 36.2174 119.833 36.4157C119.899 36.6139 119.958 36.8174 120.01 37.0261C120.063 37.2313 120.099 37.433 120.12 37.6313C120.13 37.7391 120.136 37.8452 120.136 37.9496C120.136 38.0365 120.129 38.1496 120.115 38.2887C120.104 38.4243 120.063 38.5739 119.99 38.7374C119.889 38.96 119.753 39.1461 119.583 39.2957C119.416 39.4452 119.219 39.5652 118.993 39.6557C118.77 39.7426 118.522 39.8052 118.247 39.8435C117.972 39.8783 117.682 39.8957 117.376 39.8957H116.181V39.0817ZM118.445 33.4052L117.683 34.167L116.911 33.4L117.673 32.633L118.445 33.4052ZM120.297 33.4157L119.541 34.1774L118.769 33.4052L119.53 32.6435L120.297 33.4157ZM127.787 43.167C128.013 43.1948 128.245 43.2087 128.481 43.2087C128.506 43.2087 128.589 43.2087 128.732 43.2087C128.878 43.2087 129.081 43.1861 129.342 43.1409C129.603 43.0991 129.859 43.033 130.109 42.9426C130.363 42.8522 130.603 42.7357 130.829 42.593C130.909 42.7217 130.98 42.8417 131.043 42.953C131.109 43.0643 131.179 43.1809 131.252 43.3026C130.949 43.4904 130.62 43.6435 130.266 43.7617C129.914 43.8835 129.551 43.9652 129.175 44.007C128.973 44.0313 128.77 44.0435 128.565 44.0435C128.394 44.0435 128.17 44.0296 127.892 44.0017C127.617 43.9774 127.306 43.9009 126.958 43.7722C126.613 43.647 126.292 43.473 125.993 43.2504C125.693 43.0278 125.436 42.7513 125.22 42.4209C125.113 42.24 125.034 42.0348 124.986 41.8052C124.937 41.5896 124.913 41.3704 124.913 41.1478C124.913 41.1304 124.913 41.0574 124.913 40.9287C124.916 40.8035 124.944 40.6243 124.996 40.3913C125.048 40.1617 125.125 39.9565 125.226 39.7757H125.22C125.325 39.5878 125.455 39.4087 125.612 39.2383C125.772 39.0678 125.947 38.9096 126.139 38.7635C126.333 38.6174 126.539 38.4835 126.754 38.3617C126.973 38.24 127.196 38.1339 127.422 38.0435C127.109 37.7617 126.838 37.5009 126.608 37.2609C126.379 37.0209 126.161 36.7896 125.956 36.567C125.946 36.473 125.935 36.3774 125.925 36.28C125.918 36.1826 125.911 36.0887 125.904 35.9983C126.012 35.8417 126.142 35.7061 126.295 35.5913C126.448 35.4765 126.606 35.3791 126.77 35.2991C126.933 35.2157 127.095 35.1478 127.255 35.0957C127.415 35.0435 127.554 35.0035 127.673 34.9757L127.667 34.9809C128.043 34.8974 128.406 34.8557 128.758 34.8557C128.946 34.8557 129.125 34.8678 129.295 34.8922C129.469 34.9165 129.629 34.953 129.775 35.0017C130.123 35.1061 130.386 35.2609 130.563 35.4661C130.73 35.6643 130.813 35.8939 130.813 36.1548C130.813 36.1687 130.813 36.1843 130.813 36.2017C130.806 36.4835 130.733 36.7461 130.594 36.9896C130.459 37.233 130.274 37.4539 130.041 37.6522C129.913 37.753 129.759 37.8557 129.582 37.96C129.408 38.0643 129.222 38.1617 129.024 38.2522C129.42 38.4922 129.813 38.6904 130.203 38.847C130.596 39.0035 130.987 39.0817 131.377 39.0817H131.497V39.8957H131.366C131.081 39.8957 130.803 39.8643 130.532 39.8017C130.26 39.7391 129.991 39.6522 129.723 39.5409C129.459 39.4296 129.194 39.2974 128.93 39.1443C128.669 38.9878 128.403 38.8157 128.132 38.6278C127.85 38.7391 127.566 38.8678 127.281 39.0139C126.996 39.16 126.739 39.3322 126.509 39.5304C126.279 39.7252 126.092 39.9496 125.946 40.2035C125.799 40.4574 125.726 40.7478 125.726 41.0748C125.726 41.2591 125.759 41.4365 125.826 41.607C125.892 41.7774 125.979 41.9357 126.086 42.0817C126.198 42.2313 126.325 42.367 126.467 42.4887C126.61 42.6139 126.758 42.7235 126.911 42.8174C127.064 42.9113 127.215 42.9878 127.365 43.047C127.518 43.1061 127.659 43.1461 127.787 43.167ZM126.78 36.2487C126.906 36.3809 127.026 36.5078 127.14 36.6296C127.259 36.7513 127.375 36.8713 127.49 36.9896C127.608 37.1043 127.73 37.2191 127.855 37.3339C127.98 37.4452 128.114 37.56 128.257 37.6783C128.539 37.5635 128.786 37.4522 128.998 37.3443C129.21 37.233 129.387 37.1183 129.53 37C129.676 36.8817 129.787 36.7565 129.864 36.6243C129.94 36.4922 129.982 36.3461 129.989 36.1861C129.989 36.1339 129.975 36.087 129.947 36.0452C129.919 36.0035 129.883 35.9652 129.838 35.9304C129.796 35.8957 129.749 35.8661 129.697 35.8417C129.645 35.8174 129.593 35.7965 129.54 35.7791C129.422 35.7409 129.297 35.7148 129.165 35.7009C129.036 35.6835 128.902 35.6748 128.763 35.6748C128.596 35.6748 128.422 35.6887 128.241 35.7165C128.064 35.7443 127.888 35.7843 127.714 35.8365C127.54 35.8852 127.373 35.9443 127.213 36.0139C127.053 36.0835 126.909 36.1617 126.78 36.2487ZM131.286 39.0817H132.418C132.888 39.0817 133.363 39.0348 133.843 38.9409C134.323 38.8435 134.798 38.7165 135.267 38.56C135.74 38.4035 136.205 38.2243 136.66 38.0226C137.119 37.8209 137.563 37.6122 137.991 37.3965L136.436 36.7496C136.269 36.68 136.105 36.6104 135.945 36.5409C135.789 36.4678 135.636 36.4017 135.486 36.3426C135.34 36.2835 135.201 36.2365 135.069 36.2017C134.937 36.1635 134.813 36.1443 134.698 36.1443C134.566 36.1443 134.441 36.1687 134.323 36.2174C134.205 36.2626 134.093 36.3235 133.989 36.4C133.888 36.4765 133.794 36.5617 133.707 36.6557C133.62 36.7496 133.542 36.8435 133.472 36.9374C133.406 37.0313 133.347 37.12 133.295 37.2035C133.246 37.2835 133.208 37.3478 133.18 37.3965L132.481 36.9791C132.519 36.8991 132.573 36.8017 132.643 36.687C132.716 36.5687 132.818 36.4296 132.951 36.2696C133.211 35.953 133.488 35.7165 133.78 35.56C134.076 35.4035 134.382 35.3252 134.698 35.3252C134.862 35.3252 135.027 35.3443 135.194 35.3826C135.365 35.4209 135.537 35.4713 135.711 35.5339C135.885 35.5965 136.06 35.6696 136.238 35.753C136.418 35.833 136.601 35.9165 136.785 36.0035C136.987 36.0974 137.17 36.1878 137.333 36.2748C137.5 36.3583 137.664 36.44 137.824 36.52C137.984 36.5965 138.149 36.673 138.319 36.7496C138.493 36.8261 138.688 36.9043 138.904 36.9843C138.931 37.1374 138.959 37.2765 138.987 37.4017C139.015 37.5235 139.043 37.6574 139.071 37.8035C138.949 37.8522 138.85 37.8939 138.773 37.9287C138.7 37.96 138.629 37.993 138.559 38.0278C138.493 38.0591 138.422 38.0957 138.345 38.1374C138.269 38.1757 138.168 38.2261 138.043 38.2887C137.667 38.473 137.258 38.6609 136.817 38.8522C136.375 39.0435 135.912 39.2174 135.429 39.3739C134.949 39.527 134.455 39.6522 133.947 39.7496C133.439 39.847 132.93 39.8957 132.418 39.8957H131.286V39.0817ZM136.358 41.8522L135.591 42.6191L134.824 41.8522L135.591 41.0852L136.358 41.8522ZM142.832 39.64C142.832 39.9252 142.789 40.2035 142.702 40.4748C142.618 40.7496 142.5 41.0139 142.347 41.2678C142.198 41.5217 142.018 41.7635 141.81 41.993C141.604 42.2261 141.38 42.4452 141.137 42.6504C140.893 42.8591 140.636 43.0504 140.364 43.2243C140.093 43.4017 139.818 43.5617 139.54 43.7043C139.474 43.5652 139.413 43.4417 139.358 43.3339C139.298 43.2261 139.238 43.1061 139.175 42.9739C139.398 42.8522 139.625 42.7148 139.858 42.5617C140.095 42.4087 140.323 42.2435 140.542 42.0661C140.761 41.8887 140.964 41.6974 141.152 41.4922C141.344 41.2904 141.507 41.0783 141.643 40.8557C141.778 40.6365 141.879 40.407 141.945 40.167C141.991 39.9965 142.013 39.8243 142.013 39.6504C142.013 39.5774 142.01 39.5026 142.003 39.4261C141.982 39.2383 141.947 39.0383 141.898 38.8261C141.853 38.6139 141.801 38.4035 141.742 38.1948C141.686 37.9861 141.629 37.7878 141.57 37.6C141.514 37.4087 141.465 37.2435 141.424 37.1043L142.206 36.8643C142.338 37.2539 142.469 37.5896 142.598 37.8713C142.73 38.1496 142.865 38.3791 143.004 38.56C143.147 38.7374 143.293 38.8696 143.443 38.9565C143.596 39.04 143.759 39.0817 143.933 39.0817H144.038V39.8957H143.933C143.884 39.8957 143.817 39.8939 143.73 39.8904C143.643 39.8835 143.547 39.8643 143.443 39.833C143.338 39.7983 143.232 39.7443 143.124 39.6713C143.017 39.5983 142.919 39.4957 142.832 39.3635V39.64ZM143.93 39.0817C144.236 39.0817 144.495 39.033 144.707 38.9357C144.923 38.8348 145.109 38.7026 145.265 38.5391C145.422 38.3757 145.558 38.1896 145.672 37.9809C145.791 37.7687 145.905 37.5513 146.017 37.3287C146.107 37.1409 146.196 36.9635 146.283 36.7965C146.373 36.6261 146.474 36.4748 146.585 36.3426C146.881 35.9843 147.234 35.8052 147.644 35.8052C148.135 35.8052 148.545 36.0035 148.876 36.4C149.004 36.5565 149.109 36.7391 149.189 36.9478C149.269 37.153 149.324 37.3687 149.356 37.5948C149.373 37.7339 149.382 37.8713 149.382 38.007C149.382 38.0974 149.373 38.2226 149.356 38.3826C149.342 38.5426 149.297 38.7183 149.22 38.9096C149.126 39.1391 149.001 39.3322 148.844 39.4887C148.688 39.6417 148.511 39.7443 148.312 39.7965C148.191 39.8278 148.058 39.8435 147.916 39.8435C147.655 39.8435 147.368 39.7809 147.055 39.6557C146.724 39.5235 146.356 39.3096 145.949 39.0139C145.831 39.1739 145.695 39.3096 145.542 39.4209C145.389 39.5322 145.224 39.6243 145.046 39.6974C144.872 39.767 144.691 39.8174 144.504 39.8487C144.316 39.88 144.126 39.8957 143.935 39.8957H143.825V39.0817H143.93ZM146.424 38.3357C146.573 38.447 146.724 38.5461 146.878 38.633C147.034 38.7165 147.184 38.7878 147.326 38.847C147.472 38.9061 147.608 38.9513 147.733 38.9826C147.862 39.0139 147.971 39.0296 148.062 39.0296C148.097 39.0296 148.13 39.0278 148.161 39.0243C148.192 39.0209 148.225 39.0139 148.26 39.0035C148.364 38.9687 148.448 38.8887 148.511 38.7635C148.577 38.6348 148.62 38.4852 148.641 38.3148C148.651 38.2348 148.657 38.153 148.657 38.0696C148.657 37.9757 148.646 37.8557 148.625 37.7096C148.604 37.5635 148.554 37.4087 148.474 37.2452C148.394 37.0817 148.284 36.9426 148.145 36.8278C148.01 36.713 147.843 36.647 147.644 36.6296C147.631 36.6296 147.618 36.6296 147.608 36.6296C147.535 36.6296 147.465 36.6487 147.399 36.687C147.337 36.7252 147.271 36.7896 147.201 36.88C147.135 36.967 147.065 37.0783 146.992 37.2139C146.919 37.3496 146.838 37.5078 146.747 37.6887L146.424 38.3357Z" fill="white"/>
</g>
</g>
<defs>
<clipPath id="clip0_0_1">
<rect width="206" height="48" fill="white"/>
</clipPath>
</defs>
</svg>
